<svg preserveAspectRatio="xMidYMid meet" data-bbox="0 0.013 699.65 179.887" viewBox="0 0 699.77 179.9" xmlns="http://www.w3.org/2000/svg" data-type="ugc" role="presentation" aria-hidden="true" aria-label="" class="__web-inspector-hide-shortcut__">
    <g>
        <path d="M209 125.23q-3.63 0-5.55-2.04c-1.29-1.36-1.93-3.25-1.93-5.67V49.48c0-2.49.66-4.38 1.99-5.67 1.32-1.29 3.2-1.93 5.61-1.93h28.17c9.04 0 16.02 2.26 20.93 6.78s7.36 10.83 7.36 18.94-2.45 14.44-7.36 19-11.89 6.84-20.93 6.84h-20.81v24.08c0 2.42-.62 4.31-1.87 5.67q-1.875 2.04-5.61 2.04m7.48-43.6h18.47c5.3 0 9.31-1.19 12.04-3.57s4.09-5.86 4.09-10.46-1.36-8.07-4.09-10.4c-2.73-2.34-6.74-3.51-12.04-3.51h-18.47z" fill="#062332"></path>
        <path d="m347.64 115.18-8.76-16.25c-1.8-3.35-3.88-5.8-6.26-7.36-1.08-.71-2.24-1.25-3.49-1.63 1.99-.47 3.85-1.09 5.54-1.88 4.21-1.95 7.42-4.75 9.64-8.42 2.22-3.66 3.33-8.02 3.33-13.09 0-7.79-2.45-13.86-7.36-18.18-4.91-4.33-11.89-6.49-20.93-6.49h-28.17c-2.42 0-4.29.64-5.61 1.93-1.33 1.29-1.99 3.18-1.99 5.67v68.04c0 2.42.64 4.31 1.93 5.67q1.92 2.04 5.55 2.04c3.63 0 4.36-.68 5.61-2.04s1.87-3.25 1.87-5.67V91.33h11.11c2.96 0 5.4.45 7.31 1.35 1.91.89 3.56 2.67 4.96 5.32l11.81 21.74c1.01 1.87 2.18 3.26 3.51 4.15 1.32.9 3.04 1.34 5.14 1.34s3.7-.48 4.8-1.46c1.09-.97 1.67-2.24 1.75-3.8.08-1.55-.35-3.15-1.29-4.79m-30.86-34.95h-18.24V53.69h18.24c5.38 0 9.45 1.11 12.22 3.33 2.76 2.22 4.15 5.52 4.15 9.88s-1.39 7.77-4.15 9.99c-2.77 2.23-6.84 3.34-12.22 3.34" fill="#062332"></path>
        <path d="M377.57 124.3c-2.57 0-4.54-.68-5.9-2.05-1.36-1.36-2.05-3.33-2.05-5.9V49.83c0-2.57.68-4.54 2.05-5.9 1.36-1.36 3.33-2.04 5.9-2.04h41.74c1.95 0 3.45.51 4.5 1.52s1.58 2.46 1.58 4.33-.53 3.45-1.58 4.5-2.55 1.58-4.5 1.58H384V76.5h32.73c2.03 0 3.55.51 4.56 1.52s1.52 2.5 1.52 4.44-.51 3.43-1.52 4.44-2.53 1.52-4.56 1.52H384v23.97h35.31c1.95 0 3.45.51 4.5 1.52s1.58 2.5 1.58 4.44-.53 3.43-1.58 4.44-2.55 1.52-4.5 1.52h-41.74Z" fill="#062332"></path>
        <path d="M452.74 125.23q-3.63 0-5.55-2.04c-1.29-1.36-1.93-3.25-1.93-5.67V48.66c0-2.49.64-4.4 1.93-5.73 1.29-1.32 3.14-1.99 5.55-1.99s4.27.66 5.55 1.99c1.29 1.33 1.93 3.24 1.93 5.73v27.59h42.44V48.66c0-2.49.64-4.4 1.93-5.73 1.29-1.32 3.14-1.99 5.55-1.99s4.27.66 5.55 1.99c1.29 1.33 1.93 3.24 1.93 5.73v68.86c0 2.42-.64 4.31-1.93 5.67q-1.935 2.04-5.55 2.04c-3.615 0-4.27-.68-5.55-2.04-1.29-1.36-1.93-3.25-1.93-5.67V88.76h-42.44v28.76c0 2.42-.62 4.31-1.87 5.67q-1.875 2.04-5.61 2.04" fill="#062332"></path>
        <path d="m615.59 115.65-30.98-68.39c-1.01-2.26-2.24-3.88-3.68-4.85-1.45-.98-3.06-1.46-4.85-1.46s-3.53.48-4.97 1.46c-1.45.97-2.67 2.59-3.69 4.85l-30.86 68.39c-.78 1.79-1.05 3.41-.82 4.85.24 1.44.92 2.59 2.05 3.45s2.63 1.28 4.5 1.28c2.03 0 3.58-.5 4.68-1.52 1.09-1.01 2.14-2.64 3.15-4.91l5.75-13.56h40.2l5.84 13.56c.94 2.19 2.01 3.8 3.22 4.86 1.21 1.05 2.9 1.57 5.08 1.57 1.79 0 3.24-.4 4.33-1.22s1.75-1.97 1.99-3.45c.23-1.48-.08-3.12-.94-4.91m-54.54-22.33 14.79-35.19h.24l14.9 35.19z" fill="#062332"></path>
        <path d="M694.85 87.59c-2.53-2.78-5.87-4.72-10.01-5.84 3.4-1.3 6.19-3.25 8.38-5.85q4.32-5.145 4.32-12.63c0-4.44-1.07-8.26-3.21-11.45-2.15-3.2-5.25-5.65-9.3-7.37-4.05-1.71-8.96-2.57-14.73-2.57h-28.06c-2.57 0-4.54.68-5.9 2.05-1.36 1.36-2.04 3.33-2.04 5.9v66.52c0 2.57.68 4.54 2.04 5.9 1.36 1.37 3.33 2.05 5.9 2.05h29.35c8.8 0 15.68-2.01 20.63-6.02s7.43-9.68 7.43-17.01q0-8.415-4.8-13.68m-46.18-34.37h19.06c5.14 0 8.98.99 11.52 2.98 2.53 1.99 3.8 4.93 3.8 8.83s-1.27 6.84-3.8 8.82c-2.54 1.99-6.38 2.99-11.52 2.99h-19.06zm32.74 56.64c-2.5 2.07-6.39 3.1-11.69 3.1h-21.05V88.18h21.05c5.3 0 9.19 1.01 11.69 3.03 2.49 2.03 3.74 5.15 3.74 9.36s-1.25 7.23-3.74 9.29" fill="#062332"></path>
        <path d="M202.11 155.77q-.405 0-.63-.24c-.15-.16-.22-.38-.22-.65v-12.74c0-.28.08-.5.23-.66s.37-.23.64-.23c.24 0 .43.05.58.14.14.09.27.26.39.48l5.41 10.15h-.63l5.41-10.15c.12-.23.25-.39.38-.48s.32-.14.57-.14c.27 0 .48.08.63.23.15.16.22.37.22.66v12.74c0 .27-.07.48-.21.65s-.35.24-.64.24-.49-.08-.64-.24-.21-.38-.21-.65V144h.44l-4.84 9.06c-.11.17-.22.31-.33.39-.12.09-.27.13-.47.13-.19 0-.35-.05-.47-.14-.13-.09-.24-.22-.33-.38l-4.9-9.08h.48v10.9c0 .27-.07.48-.21.65s-.35.24-.64.24Z" fill="#ff6b09" stroke="#ff6b09" stroke-miterlimit="10" stroke-width=".5"></path>
        <path d="M225.21 155.81c-.94 0-1.77-.12-2.49-.37s-1.32-.62-1.81-1.11c-.48-.49-.85-1.1-1.1-1.84-.25-.73-.37-1.58-.37-2.55v-7.73q0-.48.24-.72c.16-.15.39-.23.69-.23s.54.08.71.23c.16.16.24.39.24.72v7.67c0 1.44.33 2.51.99 3.22s1.63 1.06 2.91 1.06 2.25-.35 2.91-1.06.99-1.78.99-3.22v-7.67q0-.48.24-.72c.16-.15.39-.23.69-.23s.52.08.69.23c.16.16.24.39.24.72v7.73c0 1.28-.22 2.36-.66 3.23-.44.88-1.08 1.53-1.94 1.98-.86.44-1.91.67-3.16.67Z" fill="#ff6b09" stroke="#ff6b09" stroke-miterlimit="10" stroke-width=".5"></path>
        <path d="M239.97 155.81c-.63 0-1.25-.05-1.84-.15s-1.15-.25-1.67-.46q-.795-.3-1.41-.75c-.17-.12-.3-.27-.37-.44a.9.9 0 0 1-.06-.51c.03-.17.11-.31.22-.43s.25-.2.41-.22c.16-.03.34.03.52.16.62.42 1.27.72 1.95.91s1.43.28 2.25.28c1.18 0 2.05-.21 2.61-.65s.84-1 .84-1.7c0-.58-.2-1.03-.61-1.36q-.6-.495-2.04-.78l-2.14-.44c-1.26-.27-2.21-.71-2.84-1.33s-.94-1.45-.94-2.48c0-.63.13-1.21.38-1.73s.62-.96 1.09-1.34 1.03-.67 1.67-.87q.96-.3 2.13-.3c.83 0 1.62.12 2.35.34s1.4.56 1.99 1.01c.16.12.27.27.32.43.05.17.06.33.03.5a.72.72 0 0 1-.22.4c-.11.11-.26.17-.42.18-.17.01-.35-.05-.55-.18-.54-.38-1.09-.65-1.66-.82s-1.18-.25-1.86-.25-1.28.11-1.79.32c-.5.22-.89.51-1.17.9-.28.38-.41.83-.41 1.34 0 .62.19 1.1.57 1.45s1.01.62 1.9.81l2.12.42c1.34.28 2.34.72 3 1.3.65.59.98 1.37.98 2.35 0 .62-.12 1.18-.37 1.67-.25.5-.6.92-1.06 1.28s-1.02.63-1.68.83-1.4.29-2.22.29Z" fill="#ff6b09" stroke="#ff6b09" stroke-miterlimit="10" stroke-width=".5"></path>
        <path d="M255.04 155.81c-1.41 0-2.62-.29-3.63-.89-1.01-.59-1.79-1.44-2.33-2.53-.54-1.1-.82-2.39-.82-3.89 0-1.12.16-2.12.46-3.02.31-.9.75-1.66 1.33-2.3s1.29-1.13 2.13-1.46 1.79-.5 2.86-.5c.81 0 1.58.12 2.33.34.75.23 1.39.55 1.93.97.22.15.36.32.42.5q.105.285.03.54c-.075.255-.13.31-.26.42s-.29.17-.47.18-.39-.06-.61-.21c-.47-.36-.99-.63-1.54-.8-.56-.17-1.15-.25-1.79-.25-1.04 0-1.91.22-2.63.66s-1.26 1.07-1.63 1.9-.56 1.84-.56 3.04.19 2.2.56 3.04.92 1.48 1.63 1.92c.72.44 1.6.66 2.63.66.63 0 1.23-.09 1.81-.26.57-.17 1.1-.44 1.58-.81.21-.15.41-.21.6-.2a.75.75 0 0 1 .7.57c.04.16.04.34 0 .51-.05.18-.18.33-.36.46-.55.47-1.21.82-1.97 1.06a7.9 7.9 0 0 1-2.39.35Z" fill="#ff6b09" stroke="#ff6b09" stroke-miterlimit="10" stroke-width=".5"></path>
        <path d="M269.09 155.81c-.94 0-1.77-.12-2.49-.37s-1.32-.62-1.81-1.11c-.48-.49-.85-1.1-1.1-1.84-.25-.73-.37-1.58-.37-2.55v-7.73q0-.48.24-.72c.16-.15.39-.23.69-.23s.54.08.71.23c.16.16.24.39.24.72v7.67c0 1.44.33 2.51.99 3.22s1.63 1.06 2.91 1.06 2.25-.35 2.91-1.06.99-1.78.99-3.22v-7.67q0-.48.24-.72c.16-.15.39-.23.69-.23s.52.08.69.23c.16.16.24.39.24.72v7.73c0 1.28-.22 2.36-.66 3.23-.44.88-1.08 1.53-1.94 1.98-.86.44-1.91.67-3.16.67Z" fill="#ff6b09" stroke="#ff6b09" stroke-miterlimit="10" stroke-width=".5"></path>
        <path d="M280.13 155.63c-.3 0-.53-.09-.7-.26s-.25-.41-.25-.71v-12.39c0-.31.08-.54.24-.71q.24-.24.69-.24c.45 0 .54.08.71.24s.24.4.24.71v11.75h6.42c.28 0 .49.07.64.2s.21.33.21.58c0 .27-.07.47-.21.62-.14.14-.35.21-.64.21z" fill="#ff6b09" stroke="#ff6b09" stroke-miterlimit="10" stroke-width=".5"></path>
        <path d="M296.58 155.81c-1.35 0-2.51-.3-3.49-.9s-1.75-1.45-2.29-2.54-.82-2.38-.82-3.87c0-1.12.16-2.12.46-3.02.31-.9.75-1.66 1.32-2.3s1.26-1.13 2.08-1.46 1.73-.5 2.74-.5c1.34 0 2.51.3 3.49.89s1.74 1.43 2.28 2.52.81 2.38.81 3.85c0 1.12-.16 2.13-.46 3.03-.31.9-.75 1.68-1.32 2.32q-.855.975-2.07 1.47c-.81.34-1.72.5-2.72.5Zm0-1.65c.97 0 1.8-.22 2.48-.67.69-.44 1.21-1.09 1.58-1.94s.55-1.86.55-3.05c0-1.79-.4-3.17-1.2-4.16q-1.2-1.47-3.42-1.47-1.455 0-2.49.66c-.69.44-1.22 1.08-1.58 1.92s-.54 1.86-.54 3.06c0 1.78.4 3.16 1.21 4.16s1.94 1.49 3.41 1.49Z" fill="#ff6b09" stroke="#ff6b09" stroke-miterlimit="10" stroke-width=".5"></path>
        <path d="M311.74 155.81c-.63 0-1.25-.05-1.84-.15s-1.15-.25-1.67-.46q-.795-.3-1.41-.75c-.17-.12-.3-.27-.37-.44a.9.9 0 0 1-.06-.51c.03-.17.11-.31.22-.43s.25-.2.41-.22c.16-.03.34.03.52.16.62.42 1.27.72 1.95.91s1.43.28 2.25.28c1.18 0 2.05-.21 2.61-.65s.84-1 .84-1.7c0-.58-.2-1.03-.61-1.36q-.6-.495-2.04-.78l-2.14-.44c-1.26-.27-2.21-.71-2.84-1.33s-.94-1.45-.94-2.48c0-.63.13-1.21.38-1.73s.62-.96 1.09-1.34 1.03-.67 1.67-.87q.96-.3 2.13-.3c.83 0 1.62.12 2.35.34s1.4.56 1.99 1.01c.16.12.27.27.32.43.05.17.06.33.03.5a.72.72 0 0 1-.22.4c-.11.11-.26.17-.42.18-.17.01-.35-.05-.55-.18-.54-.38-1.09-.65-1.66-.82s-1.18-.25-1.86-.25-1.28.11-1.79.32c-.5.22-.89.51-1.17.9-.28.38-.41.83-.41 1.34 0 .62.19 1.1.57 1.45s1.01.62 1.9.81l2.12.42c1.34.28 2.34.72 3 1.3.65.59.98 1.37.98 2.35 0 .62-.12 1.18-.37 1.67-.25.5-.6.92-1.06 1.28s-1.02.63-1.68.83-1.4.29-2.22.29Z" fill="#ff6b09" stroke="#ff6b09" stroke-miterlimit="10" stroke-width=".5"></path>
        <path d="M321.48 155.77c-.3 0-.52-.08-.69-.25q-.24-.255-.24-.72v-12.59c0-.31.08-.54.24-.71q.24-.24.69-.24c.45 0 .54.08.71.24s.24.4.24.71v5.63h.04l6.38-6.08c.19-.17.37-.3.54-.38s.35-.12.55-.12c.28 0 .49.07.62.21s.18.31.15.5c-.03.2-.13.38-.3.56l-6.66 6.26.02-.95 6.96 6.54c.21.2.33.41.34.64.01.22-.05.4-.19.54s-.35.21-.64.21c-.23 0-.42-.05-.58-.14s-.33-.24-.54-.44l-6.66-6.24h-.04v5.85c0 .31-.08.55-.23.72s-.39.25-.72.25Z" fill="#ff6b09" stroke="#ff6b09" stroke-miterlimit="10" stroke-width=".5"></path>
        <path d="M335.37 155.63c-.32 0-.57-.09-.75-.26s-.26-.42-.26-.75v-12.21c0-.32.09-.57.26-.75s.42-.26.75-.26h7.43c.25 0 .45.06.59.19s.21.31.21.56c0 .26-.07.45-.21.58s-.34.2-.59.2h-6.62v4.7h6.2c.25 0 .45.07.58.2s.2.32.2.57c0 .26-.07.45-.2.57-.13.13-.33.19-.58.19h-6.2v4.92h6.62c.25 0 .45.06.59.19s.21.32.21.58-.07.45-.21.58-.34.19-.59.19h-7.43Z" fill="#ff6b09" stroke="#ff6b09" stroke-miterlimit="10" stroke-width=".5"></path>
        <path d="M348.15 155.63c-.3 0-.53-.09-.7-.26s-.25-.41-.25-.71v-12.39c0-.31.08-.54.24-.71q.24-.24.69-.24c.45 0 .54.08.71.24s.24.4.24.71v11.75h6.42c.28 0 .49.07.64.2s.21.33.21.58c0 .27-.07.47-.21.62-.14.14-.35.21-.64.21z" fill="#ff6b09" stroke="#ff6b09" stroke-miterlimit="10" stroke-width=".5"></path>
        <path d="M360.28 155.63c-.32 0-.57-.09-.75-.26s-.26-.42-.26-.75v-12.21c0-.32.09-.57.26-.75s.42-.26.75-.26h7.43c.25 0 .45.06.59.19s.21.31.21.56c0 .26-.07.45-.21.58s-.34.2-.59.2h-6.62v4.7h6.2c.25 0 .45.07.58.2s.2.32.2.57c0 .26-.07.45-.2.57-.13.13-.33.19-.58.19h-6.2v4.92h6.62c.25 0 .45.06.59.19s.21.32.21.58-.07.45-.21.58-.34.19-.59.19h-7.43Z" fill="#ff6b09" stroke="#ff6b09" stroke-miterlimit="10" stroke-width=".5"></path>
        <path d="M376.3 155.77c-.31 0-.54-.08-.71-.25q-.24-.255-.24-.72v-11.81h-4.42c-.26 0-.46-.07-.61-.21s-.22-.34-.22-.6.07-.45.22-.58.35-.2.61-.2h10.72c.27 0 .47.07.62.2s.21.33.21.58-.07.45-.21.6c-.14.14-.35.21-.62.21h-4.42v11.81c0 .31-.08.55-.23.72-.16.17-.39.25-.7.25Z" fill="#ff6b09" stroke="#ff6b09" stroke-miterlimit="10" stroke-width=".5"></path>
        <path d="M383.38 155.77c-.24 0-.43-.05-.58-.16s-.23-.26-.25-.44q-.045-.285.12-.63l5.51-12.47c.12-.28.28-.49.46-.62s.4-.19.63-.19.43.06.62.19.34.33.47.62l5.51 12.47c.11.23.15.44.13.64s-.1.34-.23.44q-.195.15-.57.15c-.27 0-.48-.07-.65-.21-.16-.14-.3-.35-.42-.62l-1.43-3.35.87.48h-8.64l.87-.48-1.43 3.35c-.12.3-.26.51-.4.64-.15.13-.34.19-.58.19Zm5.86-12.25-3.15 7.45-.48-.42h7.31l-.46.42-3.17-7.45h-.04Z" fill="#ff6b09" stroke="#ff6b09" stroke-miterlimit="10" stroke-width=".5"></path>
        <path d="M400.34 155.63c-.3 0-.53-.09-.7-.26s-.25-.41-.25-.71v-12.39c0-.31.08-.54.24-.71q.24-.24.69-.24c.45 0 .54.08.71.24s.24.4.24.71v11.75h6.42c.28 0 .49.07.64.2s.21.33.21.58c0 .27-.07.47-.21.62-.14.14-.35.21-.64.21z" fill="#ff6b09" stroke="#ff6b09" stroke-miterlimit="10" stroke-width=".5"></path>
        <path d="M421.87 155.81c-.96 0-1.78-.15-2.47-.45s-1.22-.73-1.59-1.27-.55-1.19-.55-1.93c0-.44.06-.86.18-1.25s.31-.76.55-1.1.56-.68.93-1 .8-.64 1.28-.95l.67-.42-.26.38c-.63-.67-1.08-1.27-1.34-1.79a3.6 3.6 0 0 1-.39-1.62c0-.63.15-1.19.44-1.67.3-.48.72-.85 1.26-1.12s1.18-.4 1.91-.4c.97 0 1.76.26 2.36.79.61.53.91 1.24.91 2.14 0 .5-.1.96-.29 1.39-.2.43-.51.85-.96 1.27-.44.42-1.05.86-1.82 1.33l.02-.46 3.69 4.1h-.4c.19-.32.35-.69.49-1.09s.26-.84.36-1.31.17-.97.21-1.49c.04-.25.13-.45.26-.57.13-.13.32-.19.56-.19.26 0 .45.07.59.22.13.15.19.36.16.63-.05.67-.16 1.31-.3 1.91-.15.6-.33 1.15-.54 1.67-.22.51-.46.98-.73 1.39l-.02-.5 2 2.14q.285.285.27.57c-.015.285-.08.34-.23.46s-.34.18-.59.18c-.21 0-.39-.04-.52-.12s-.28-.21-.44-.38l-1.49-1.63h.46c-.56.69-1.25 1.22-2.05 1.61-.8.38-1.66.57-2.57.57Zm.08-1.49c.75 0 1.42-.15 2-.45s1.09-.76 1.53-1.36l-.04.54-4.26-4.58.73.04-.61.4c-.54.35-.97.68-1.3 1s-.57.64-.72.98-.22.72-.22 1.15c0 .71.25 1.27.75 1.67s1.21.61 2.14.61Zm.53-11.73c-.56 0-1.02.16-1.37.49s-.52.76-.52 1.3c0 .27.04.53.13.78s.24.52.46.81.54.66.94 1.1l-.46.02c.62-.39 1.11-.74 1.47-1.04s.63-.6.79-.89.24-.59.24-.92c0-.51-.16-.91-.46-1.21-.31-.29-.71-.44-1.21-.44Z" fill="#ff6b09" stroke="#ff6b09" stroke-miterlimit="10" stroke-width=".5"></path>
        <path d="M443.83 155.81c-.63 0-1.25-.05-1.84-.15s-1.15-.25-1.67-.46q-.795-.3-1.41-.75c-.17-.12-.3-.27-.37-.44a.9.9 0 0 1-.06-.51c.03-.17.11-.31.22-.43s.25-.2.41-.22c.16-.03.34.03.52.16.62.42 1.27.72 1.95.91s1.43.28 2.25.28c1.18 0 2.05-.21 2.61-.65s.84-1 .84-1.7c0-.58-.2-1.03-.61-1.36q-.6-.495-2.04-.78l-2.14-.44c-1.26-.27-2.21-.71-2.84-1.33s-.94-1.45-.94-2.48c0-.63.13-1.21.38-1.73s.62-.96 1.09-1.34 1.03-.67 1.67-.87q.96-.3 2.13-.3c.83 0 1.62.12 2.35.34s1.4.56 1.99 1.01c.16.12.27.27.32.43.05.17.06.33.03.5a.72.72 0 0 1-.22.4c-.11.11-.26.17-.42.18-.17.01-.35-.05-.55-.18-.54-.38-1.09-.65-1.66-.82s-1.18-.25-1.86-.25-1.28.11-1.79.32c-.5.22-.89.51-1.17.9-.28.38-.41.83-.41 1.34 0 .62.19 1.1.57 1.45s1.01.62 1.9.81l2.12.42c1.34.28 2.34.72 3 1.3.65.59.98 1.37.98 2.35 0 .62-.12 1.18-.37 1.67-.25.5-.6.92-1.06 1.28s-1.02.63-1.68.83-1.4.29-2.22.29Z" fill="#ff6b09" stroke="#ff6b09" stroke-miterlimit="10" stroke-width=".5"></path>
        <path d="M453.58 155.77c-.3 0-.52-.08-.69-.25q-.24-.255-.24-.72v-12.45c0-.31.08-.54.25-.71.17-.16.4-.24.7-.24h4.8c1.53 0 2.71.38 3.54 1.13s1.24 1.81 1.24 3.17-.41 2.44-1.24 3.19-2.01 1.13-3.54 1.13h-3.88v4.78c0 .31-.08.55-.23.72s-.39.25-.72.25Zm.95-7.26h3.63q1.575 0 2.37-.72c.53-.48.8-1.17.8-2.09s-.27-1.6-.8-2.07c-.53-.46-1.32-.7-2.37-.7h-3.63v5.57Z" fill="#ff6b09" stroke="#ff6b09" stroke-miterlimit="10" stroke-width=".5"></path>
        <path d="M472.45 155.81c-1.35 0-2.51-.3-3.49-.9s-1.75-1.45-2.29-2.54-.82-2.38-.82-3.87c0-1.12.16-2.12.46-3.02.31-.9.75-1.66 1.32-2.3s1.26-1.13 2.08-1.46 1.73-.5 2.74-.5c1.34 0 2.51.3 3.49.89s1.74 1.43 2.28 2.52.81 2.38.81 3.85c0 1.12-.16 2.13-.46 3.03-.31.9-.75 1.68-1.32 2.32q-.855.975-2.07 1.47c-.81.34-1.72.5-2.72.5Zm0-1.65c.97 0 1.8-.22 2.48-.67.69-.44 1.21-1.09 1.58-1.94s.55-1.86.55-3.05c0-1.79-.4-3.17-1.2-4.16q-1.2-1.47-3.42-1.47-1.455 0-2.49.66c-.69.44-1.22 1.08-1.58 1.92s-.54 1.86-.54 3.06c0 1.78.4 3.16 1.21 4.16s1.94 1.49 3.41 1.49Z" fill="#ff6b09" stroke="#ff6b09" stroke-miterlimit="10" stroke-width=".5"></path>
        <path d="M483.87 155.77c-.3 0-.52-.08-.69-.25q-.24-.255-.24-.72v-12.45c0-.31.08-.54.25-.71.17-.16.4-.24.7-.24h4.8q2.295 0 3.54 1.08c1.245 1.08 1.24 1.74 1.24 3.06 0 .86-.19 1.6-.57 2.21s-.92 1.08-1.63 1.4q-1.065.48-2.58.48l.2-.28h.44c.54 0 1.01.13 1.4.4.4.27.75.7 1.06 1.29l1.86 3.41c.12.21.17.42.16.62s-.09.37-.22.5-.33.19-.58.19c-.27 0-.48-.06-.65-.17-.16-.12-.3-.29-.42-.52l-2.18-4c-.3-.56-.63-.94-1.01-1.12s-.88-.27-1.51-.27h-2.42v5.11c0 .31-.08.55-.23.72s-.39.25-.72.25Zm.95-7.53h3.57c1.08 0 1.88-.22 2.42-.68s.81-1.11.81-1.99-.27-1.53-.81-1.98-1.35-.67-2.42-.67h-3.57v5.31Z" fill="#ff6b09" stroke="#ff6b09" stroke-miterlimit="10" stroke-width=".5"></path>
        <path d="M501.55 155.77c-.31 0-.54-.08-.71-.25q-.24-.255-.24-.72v-11.81h-4.42c-.26 0-.46-.07-.61-.21s-.22-.34-.22-.6.07-.45.22-.58.35-.2.61-.2h10.72c.27 0 .47.07.62.2s.21.33.21.58-.07.45-.21.6c-.14.14-.35.21-.62.21h-4.42v11.81c0 .31-.08.55-.23.72-.16.17-.39.25-.7.25Z" fill="#ff6b09" stroke="#ff6b09" stroke-miterlimit="10" stroke-width=".5"></path>
        <path d="M514.57 155.81c-.63 0-1.25-.05-1.84-.15s-1.15-.25-1.67-.46q-.795-.3-1.41-.75c-.17-.12-.3-.27-.37-.44a.9.9 0 0 1-.06-.51c.03-.17.11-.31.22-.43s.25-.2.41-.22c.16-.03.34.03.52.16.62.42 1.27.72 1.95.91s1.43.28 2.25.28c1.18 0 2.05-.21 2.61-.65s.84-1 .84-1.7c0-.58-.2-1.03-.61-1.36q-.6-.495-2.04-.78l-2.14-.44c-1.26-.27-2.21-.71-2.84-1.33s-.94-1.45-.94-2.48c0-.63.13-1.21.38-1.73s.62-.96 1.09-1.34 1.03-.67 1.67-.87q.96-.3 2.13-.3c.83 0 1.62.12 2.35.34s1.4.56 1.99 1.01c.16.12.27.27.32.43.05.17.06.33.03.5a.72.72 0 0 1-.22.4c-.11.11-.26.17-.42.18-.17.01-.35-.05-.55-.18-.54-.38-1.09-.65-1.66-.82s-1.18-.25-1.86-.25-1.28.11-1.79.32c-.5.22-.89.51-1.17.9-.28.38-.41.83-.41 1.34 0 .62.19 1.1.57 1.45s1.01.62 1.9.81l2.12.42c1.34.28 2.34.72 3 1.3.65.59.98 1.37.98 2.35 0 .62-.12 1.18-.37 1.67-.25.5-.6.92-1.06 1.28s-1.02.63-1.68.83-1.4.29-2.22.29Z" fill="#ff6b09" stroke="#ff6b09" stroke-miterlimit="10" stroke-width=".5"></path>
        <path d="M530.6 155.77c-.3 0-.52-.08-.69-.25q-.24-.255-.24-.72v-12.57c0-.32.08-.57.24-.73q.24-.24.69-.24c.45 0 .54.08.71.24s.24.4.24.73v5.39h8.23v-5.39c0-.32.08-.57.24-.73s.4-.24.71-.24.53.08.69.24.24.4.24.73v12.57q0 .465-.24.72c-.16.17-.39.25-.69.25s-.54-.08-.71-.25q-.24-.255-.24-.72v-5.59h-8.23v5.59c0 .31-.08.55-.23.72s-.39.25-.72.25Z" fill="#ff6b09" stroke="#ff6b09" stroke-miterlimit="10" stroke-width=".5"></path>
        <path d="M547.11 155.63c-.32 0-.57-.09-.75-.26s-.26-.42-.26-.75v-12.21c0-.32.09-.57.26-.75s.42-.26.75-.26h7.43c.25 0 .45.06.59.19s.21.31.21.56c0 .26-.07.45-.21.58s-.34.2-.59.2h-6.62v4.7h6.2c.25 0 .45.07.58.2s.2.32.2.57c0 .26-.07.45-.2.57-.13.13-.33.19-.58.19h-6.2v4.92h6.62c.25 0 .45.06.59.19s.21.32.21.58-.07.45-.21.58-.34.19-.59.19h-7.43Z" fill="#ff6b09" stroke="#ff6b09" stroke-miterlimit="10" stroke-width=".5"></path>
        <path d="M558.45 155.77c-.24 0-.43-.05-.58-.16s-.23-.26-.25-.44q-.045-.285.12-.63l5.51-12.47c.12-.28.28-.49.46-.62s.4-.19.63-.19.43.06.62.19.34.33.47.62l5.51 12.47c.11.23.15.44.13.64s-.1.34-.23.44q-.195.15-.57.15c-.27 0-.48-.07-.65-.21-.16-.14-.3-.35-.42-.62l-1.43-3.35.87.48H560l.87-.48-1.43 3.35c-.12.3-.26.51-.4.64-.15.13-.34.19-.58.19Zm5.85-12.25-3.15 7.45-.48-.42h7.31l-.46.42-3.17-7.45h-.04Z" fill="#ff6b09" stroke="#ff6b09" stroke-miterlimit="10" stroke-width=".5"></path>
        <path d="M575.4 155.63c-.3 0-.53-.09-.7-.26s-.25-.41-.25-.71v-12.39c0-.31.08-.54.24-.71q.24-.24.69-.24c.45 0 .54.08.71.24s.24.4.24.71v11.75h6.42c.28 0 .49.07.64.2s.21.33.21.58c0 .27-.07.47-.21.62-.14.14-.35.21-.64.21z" fill="#ff6b09" stroke="#ff6b09" stroke-miterlimit="10" stroke-width=".5"></path>
        <path d="M588.36 155.77c-.31 0-.54-.08-.71-.25q-.24-.255-.24-.72v-11.81h-4.42c-.26 0-.46-.07-.61-.21s-.22-.34-.22-.6.07-.45.22-.58.35-.2.61-.2h10.72c.27 0 .47.07.62.2s.21.33.21.58-.07.45-.21.6c-.14.14-.35.21-.62.21h-4.42v11.81c0 .31-.08.55-.23.72-.16.17-.39.25-.7.25Z" fill="#ff6b09" stroke="#ff6b09" stroke-miterlimit="10" stroke-width=".5"></path>
        <path d="M598.13 155.77c-.3 0-.52-.08-.69-.25q-.24-.255-.24-.72v-12.57c0-.32.08-.57.24-.73q.24-.24.69-.24c.45 0 .54.08.71.24s.24.4.24.73v5.39h8.23v-5.39c0-.32.08-.57.24-.73s.4-.24.71-.24.53.08.69.24.24.4.24.73v12.57q0 .465-.24.72c-.16.17-.39.25-.69.25s-.54-.08-.71-.25q-.24-.255-.24-.72v-5.59h-8.23v5.59c0 .31-.08.55-.23.72s-.39.25-.72.25Z" fill="#ff6b09" stroke="#ff6b09" stroke-miterlimit="10" stroke-width=".5"></path>
        <path d="M626.16 155.81c-1.41 0-2.62-.29-3.63-.89-1.01-.59-1.79-1.44-2.33-2.53-.54-1.1-.82-2.39-.82-3.89 0-1.12.16-2.12.46-3.02.31-.9.75-1.66 1.33-2.3s1.29-1.13 2.13-1.46 1.79-.5 2.86-.5c.81 0 1.58.12 2.33.34.75.23 1.39.55 1.93.97.22.15.36.32.42.5q.105.285.03.54c-.075.255-.13.31-.26.42s-.29.17-.47.18-.39-.06-.61-.21c-.47-.36-.99-.63-1.54-.8-.56-.17-1.15-.25-1.79-.25-1.04 0-1.91.22-2.63.66s-1.26 1.07-1.63 1.9-.56 1.84-.56 3.04.19 2.2.56 3.04.92 1.48 1.63 1.92c.72.44 1.6.66 2.63.66.63 0 1.23-.09 1.81-.26.57-.17 1.1-.44 1.58-.81.21-.15.41-.21.6-.2a.75.75 0 0 1 .7.57c.04.16.04.34 0 .51-.05.18-.18.33-.36.46-.55.47-1.21.82-1.97 1.06a7.9 7.9 0 0 1-2.39.35Z" fill="#ff6b09" stroke="#ff6b09" stroke-miterlimit="10" stroke-width=".5"></path>
        <path d="M635.48 155.63c-.3 0-.53-.09-.7-.26s-.25-.41-.25-.71v-12.39c0-.31.08-.54.24-.71q.24-.24.69-.24c.45 0 .54.08.71.24s.24.4.24.71v11.75h6.42c.28 0 .49.07.64.2s.21.33.21.58c0 .27-.07.47-.21.62-.14.14-.35.21-.64.21z" fill="#ff6b09" stroke="#ff6b09" stroke-miterlimit="10" stroke-width=".5"></path>
        <path d="M647.53 155.77c-.3 0-.52-.08-.69-.25q-.24-.255-.24-.72v-12.57c0-.32.08-.57.24-.73q.24-.24.69-.24c.45 0 .54.08.71.24s.24.4.24.73v12.57c0 .31-.08.55-.23.72s-.39.25-.72.25Z" fill="#ff6b09" stroke="#ff6b09" stroke-miterlimit="10" stroke-width=".5"></path>
        <path d="M653.77 155.77c-.27 0-.48-.08-.64-.24-.15-.16-.23-.38-.23-.67v-12.65c0-.31.07-.54.22-.71.15-.16.34-.24.58-.24.23 0 .4.04.53.12.12.08.25.22.4.42l8.56 11.34h-.5v-10.98c0-.3.08-.52.23-.68s.37-.23.66-.23.5.08.65.23c.15.16.22.38.22.68v12.69c0 .28-.07.5-.21.67-.14.16-.33.24-.55.24s-.39-.04-.54-.13c-.14-.09-.29-.23-.43-.43l-8.54-11.34h.46v11c0 .28-.07.5-.22.67-.15.16-.36.24-.65.24Z" fill="#ff6b09" stroke="#ff6b09" stroke-miterlimit="10" stroke-width=".5"></path>
        <path d="M669.79 155.77c-.3 0-.52-.08-.69-.25q-.24-.255-.24-.72v-12.57c0-.32.08-.57.24-.73q.24-.24.69-.24c.45 0 .54.08.71.24s.24.4.24.73v12.57c0 .31-.08.55-.23.72s-.39.25-.72.25Z" fill="#ff6b09" stroke="#ff6b09" stroke-miterlimit="10" stroke-width=".5"></path>
        <path d="M681.42 155.81c-1.41 0-2.62-.29-3.63-.89-1.01-.59-1.79-1.44-2.33-2.53-.54-1.1-.82-2.39-.82-3.89 0-1.12.16-2.12.46-3.02.31-.9.75-1.66 1.33-2.3s1.29-1.13 2.13-1.46 1.79-.5 2.86-.5c.81 0 1.58.12 2.33.34.75.23 1.39.55 1.93.97.22.15.36.32.42.5q.105.285.03.54c-.075.255-.13.31-.26.42s-.29.17-.47.18-.39-.06-.61-.21c-.47-.36-.99-.63-1.54-.8-.56-.17-1.15-.25-1.79-.25-1.04 0-1.91.22-2.63.66s-1.26 1.07-1.63 1.9-.56 1.84-.56 3.04.19 2.2.56 3.04.92 1.48 1.63 1.92c.72.44 1.6.66 2.63.66.63 0 1.23-.09 1.81-.26.57-.17 1.1-.44 1.58-.81.21-.15.41-.21.6-.2a.75.75 0 0 1 .7.57c.04.16.04.34 0 .51-.05.18-.18.33-.36.46-.55.47-1.21.82-1.97 1.06a7.9 7.9 0 0 1-2.39.35Z" fill="#ff6b09" stroke="#ff6b09" stroke-miterlimit="10" stroke-width=".5"></path>
        <path d="M694.2 155.81c-.63 0-1.25-.05-1.84-.15s-1.15-.25-1.67-.46q-.795-.3-1.41-.75c-.17-.12-.3-.27-.37-.44a.9.9 0 0 1-.06-.51c.03-.17.11-.31.22-.43s.25-.2.41-.22c.16-.03.34.03.52.16.62.42 1.27.72 1.95.91s1.43.28 2.25.28c1.18 0 2.05-.21 2.61-.65s.84-1 .84-1.7c0-.58-.2-1.03-.61-1.36q-.6-.495-2.04-.78l-2.14-.44c-1.26-.27-2.21-.71-2.84-1.33s-.94-1.45-.94-2.48c0-.63.13-1.21.38-1.73s.62-.96 1.09-1.34 1.03-.67 1.67-.87q.96-.3 2.13-.3c.83 0 1.62.12 2.35.34s1.4.56 1.99 1.01c.16.12.27.27.32.43.05.17.06.33.03.5a.72.72 0 0 1-.22.4c-.11.11-.26.17-.42.18-.17.01-.35-.05-.55-.18-.54-.38-1.09-.65-1.66-.82s-1.18-.25-1.86-.25-1.28.11-1.79.32c-.5.22-.89.51-1.17.9-.28.38-.41.83-.41 1.34 0 .62.19 1.1.57 1.45s1.01.62 1.9.81l2.12.42c1.34.28 2.34.72 3 1.3.65.59.98 1.37.98 2.35 0 .62-.12 1.18-.37 1.67-.25.5-.6.92-1.06 1.28s-1.02.63-1.68.83-1.4.29-2.22.29Z" fill="#ff6b09" stroke="#ff6b09" stroke-miterlimit="10" stroke-width=".5"></path>
        <path d="M167.38 99.18c-1.57 44.85-38.43 80.72-83.66 80.72S0 142.42 0 96.18s37.48-83.71 83.71-83.71 82.09 35.87 83.66 80.72c-1.58-40.05-34.54-72.04-74.97-72.04S18.71 53.42 17.41 93.73c0 .27-.02.54-.02.81 0 .22 0 .45-.01.68v1.94c0 .23 0 .45.01.68 0 .27.02.54.02.81 1.29 40.3 34.37 72.57 74.99 72.57s73.4-31.98 74.97-72.04Z" fill="#ff6b09"></path>
        <path d="M167.38 96.18c0 .65 0 1.29-.02 1.93 0 .36-.02.71-.03 1.06-1.58 40.05-34.54 72.04-74.97 72.04s-73.71-32.27-75-72.57c1.29 34.14 29.37 61.41 63.83 61.41s63.87-28.6 63.87-63.87-28.59-63.87-63.87-63.87-62.53 27.28-63.83 61.41c1.29-40.3 34.37-72.57 74.99-72.57s73.4 31.98 74.97 72.04l.03 1.06c.02.64.02 1.29.02 1.93Z" fill="#062332"></path>
        <path d="M145.1 96.18c0 35.27-28.59 63.87-63.87 63.87S18.7 132.77 17.4 98.64c0-.27-.02-.54-.02-.81 0-.22 0-.45-.01-.68v-1.94c0-.23 0-.45.01-.68 0-.27.02-.54.02-.81 1.29-34.14 29.37-61.41 63.83-61.41s63.87 28.6 63.87 63.87" fill="#2bd9c5"></path>
        <path d="M147.71 96.18c0 33.68-27.3 60.99-60.99 60.99s-59.71-26.05-60.95-58.64c0-.26-.02-.51-.02-.77 0-.21 0-.43-.01-.65v-1.86c0-.22 0-.43.01-.65 0-.26.02-.51.02-.77C27 61.23 53.82 35.19 86.72 35.19s60.99 27.31 60.99 60.99" fill="#f7f7f5"></path>
        <path d="M145.9 154.21c-12.44-12.76-4.84-9.66-15.89-22.76-4.14-4.83-3.8-6.55-8.29-12.42-4.14-5.17-4.14-13.8-15.89-22.42-2.42-1.72-4.49-4.14-5.87-6.9-13.47-29.66-31.43-21.73-30.05-41.04.34-4.83-1.04-8.28-.34-13.11.34-2.76 1.38-12.07.34-14.49-1.38-1.72 0-6.21.69-7.24 0 0 1.73-2.07 2.07-4.48.34-2.76 2.07-7.59 0-5.86-.69.69-1.38 2.76-1.38 3.79 0 0-.69.34-.69-.34.69 0 2.42-4.48 1.73-5.17 0 0-.34-.69-.69-.34-.35.34-.69 1.38-1.04 2.07-.34 1.03-1.03 2.07-1.03 3.1 0-1.38 1.72-5.17 1.72-6.21l-.34-.34s-.69-.34-1.03 1.03c-.34 1.38-1.73 3.79-1.73 5.52-1.04 0-1.04-1.03 1.03-5.52.35-.34-.34-1.38-1.72 0s-1.73 3.45-1.73 3.79c0 0-2.07-2.76-2.42-1.03-.34 1.03.69 2.07.35 3.45 0 1.03 0 2.41.34 3.79 2.76 6.55-3.45 16.9-2.42 25.87C63 51.44 56.44 54.2 59.89 61.1c.34.34.34 1.03.34 1.38-.34 1.38-1.38 3.79-2.42 3.1-1.04-.34-2.07-.34-2.07-1.38 0-.69 0-2.07.34-3.1v-1.38c-.34-.69-1.04-.34-2.42-1.03-.69-.34-1.04-1.38-2.42-1.38 0 0 0-2.41-2.42-1.38 0 0-.69 0-1.73-.34-8.98-3.1-14.16 13.11-3.11 16.55.69.34 1.73.34 2.42 0 2.42-.34 9.33-.69 9.33 6.9 0 1.72-.34 3.45-1.04 4.83-2.76 6.9-2.42 13.45-6.22 19.66-2.76 4.49-7.94 19.66-8.29 22.08-11.74 11.73-10.02 16.21-6.56 14.14.69-.34 1.03-1.38 2.76-1.03 1.73.34 1.73-3.1 3.45-4.14 1.73-1.03 2.42-1.72 2.76-2.76s1.73-2.07 1.38-3.79c-.34-2.41 2.42-6.21 4.49-6.9 2.76-1.38 6.22-10.35 6.22-12.42 2.42-6.56 5.53-10.69 5.53-19.32 0-.69.34-1.72 5.18-.34 3.45 1.03 11.4-.34 12.43 6.55.69 3.79-1.04 6.55-3.8 8.28-4.84 2.76-11.74 7.25-14.85 12.42-1.38 2.41-2.76 4.48-4.83 6.21-3.8 3.79-3.11 5.52-6.56 10.35-17.61 21.73-18.65 17.93-23.49 22.76-1.73 1.72-3.45 3.1-5.53 4.14-4.83 3.1-4.14 5.87-1.03 5.87 1.38 0 1.73-1.03 2.76-1.03.69 0 1.38.69 4.49-1.73 2.07-1.38 4.49-2.07 6.91-1.03 3.11 1.03 6.22-2.76 3.45-5.52 0 0 6.22-7.93 12.09-9.66 5.87-2.07 8.29-10 10.71-12.76s18.3-15.18 21.76-17.24c3.45-1.72 10.36-4.83 13.12-8.97 0 0 .69-1.72 4.14.69 3.45 2.76 16.58 15.87 18.31 18.97 1.72 3.1 4.14 2.76 6.22 9.31 2.07 6.55 15.19 12.42 15.89 15.52.69 3.1-1.04 5.86 0 6.9 1.03 1.03 4.49 0 5.87 1.38 1.38 1.03 2.76 3.11 4.15 3.8 1.03 1.03 5.52 2.07 6.56.34 3.11-5.18-5.53-5.87-8.29-10.35ZM67.16 62.12c-1.03.69-2.07.34-2.76-.69s-.34-2.07.69-2.76c1.04-.69 2.07-.34 2.76.69s.34 2.41-.69 2.76m-12.09 70.36c-1.03.69-2.07.34-2.76-.69s-.34-2.07.69-2.76c1.04-.69 2.07-.34 2.76.69s.34 2.07-.69 2.76m26.25-24.83c-2.42.69-3.45-3.45-.69-3.8 1.04-.34 2.07.34 2.42 1.38 0 1.38-.69 2.42-1.73 2.42m17.95-7.24c-1.03.34-2.07-.34-2.42-1.38-.34-1.03.34-2.07 1.38-2.41 1.03-.34 2.07.34 2.42 1.38s-.34 2.07-1.38 2.41m23.49 28.28c-1.03.34-2.07-.34-2.42-1.38-.34-1.03.34-2.07 1.38-2.41 1.03-.34 2.07.34 2.42 1.38.34 1.38-.34 2.41-1.38 2.41" fill="#062332"></path>
    </g>
</svg>